<?xml version="1.0" encoding="UTF-8"?><!DOCTYPE svg PUBLIC "-//W3C//DTD SVG 1.1//EN" "http://www.w3.org/Graphics/SVG/1.1/DTD/svg11.dtd">
<svg xmlns="http://www.w3.org/2000/svg" xmlns:xlink="http://www.w3.org/1999/xlink" version="1.1" viewBox="0 0 124 40">
  <path fill-rule="evenodd" clip-rule="evenodd" d="M0 13C0 11.3431 1.34315 10 3 10H6H13C14.6569 10 16 11.3431 16 13C16 14.6569 14.6569 16 13 16H6V24H10V20H9C8.44771 20 8 19.5523 8 19C8 18.4477 8.44771 18 9 18H10H13C14.6569 18 16 19.3431 16 21V24V27C16 28.6569 14.6569 30 13 30H10H6H3C1.34315 30 0 28.6569 0 27V24V16V13Z" fill="#F5F5F5"/>
  <path fill-rule="evenodd" clip-rule="evenodd" d="M21 10C19.5503 10 18.3407 11.0283 18.0609 12.3954C18.021 12.5907 18 12.7929 18 13V16V18V24V27C18 28.6569 19.3431 30 21 30C22.6569 30 24 28.6569 24 27V24H28V27C28 28.6569 29.3431 30 31 30C32.6569 30 34 28.6569 34 27V24V18V16V13C34 11.3431 32.6569 10 31 10H28H24H21ZM28 16H24V18H28V16Z" fill="#F5F5F5"/>
  <path fill-rule="evenodd" clip-rule="evenodd" d="M38.9612 10.0002C38.9741 10.0001 38.9871 10 39 10C39.0035 10 39.007 10 39.0105 10C39.8948 10.0031 40.689 10.3886 41.2362 11C42.8494 12.8025 45 17 45 17C45 17 47.1506 12.8025 48.7638 11C49.311 10.3886 50.1052 10.0031 50.9895 10C50.993 10 50.9965 10 51 10C51.0129 10 51.0259 10.0001 51.0388 10.0002C52.6778 10.021 54 11.3561 54 13V27C54 28.6569 52.6569 30 51 30C49.3431 30 48 28.6569 48 27V23.0458C47.8376 23.2873 47.6935 23.5108 47.5723 23.7129C46.4072 25.6543 43.5928 25.6543 42.4277 23.7129C42.3065 23.5108 42.1624 23.2873 42 23.0458V27C42 28.6569 40.6569 30 39 30C37.3431 30 36 28.6569 36 27V13C36 11.3557 37.3224 10.021 38.9612 10.0002Z" fill="#F5F5F5"/>
  <path fill-rule="evenodd" clip-rule="evenodd" d="M59 10C57.3431 10 56 11.3431 56 13V16V21V22V24V27C56 28.6569 57.3431 30 59 30H62H69C70.6569 30 72 28.6569 72 27C72 25.3431 70.6569 24 69 24H62V22H68C69.1046 22 70 21.1046 70 20C70 18.8954 69.1046 18 68 18H62V16H69C70.6569 16 72 14.6569 72 13C72 11.3431 70.6569 10 69 10H62H59Z" fill="#F5F5F5"/>
  <path fill-rule="evenodd" clip-rule="evenodd" d="M81 10C79.3431 10 78 11.3431 78 13V24H77C75.3431 24 74 25.3431 74 27C74 28.6569 75.3431 30 77 30H78C81.3137 30 84 27.3137 84 24V13C84 11.3431 82.6569 10 81 10Z" fill="#F5F5F5"/>
  <path fill-rule="evenodd" clip-rule="evenodd" d="M89 10C87.5503 10 86.3407 11.0283 86.0609 12.3954C86.021 12.5907 86 12.7929 86 13V16V18V24V27C86 28.6569 87.3431 30 89 30C90.6569 30 92 28.6569 92 27V24H96V27C96 28.6569 97.3431 30 99 30C100.657 30 102 28.6569 102 27V24V18V16V13C102 11.3431 100.657 10 99 10H96H92H89ZM96 16H92V18H96V16Z" fill="#F5F5F5"/>
  <path fill-rule="evenodd" clip-rule="evenodd" d="M107.011 10L107 10C105.343 10 104 11.3428 104 13V29C104 30.6569 105.343 32 107 32C108.657 32 110 30.6569 110 29V23.0458C110.162 23.2873 110.307 23.5108 110.428 23.7129C111.593 25.6543 114.407 25.6543 115.572 23.7129C115.693 23.5108 115.838 23.2873 116 23.0458V27C116 28.6569 117.343 30 119 30C120.657 30 122 28.6569 122 27V13C122 11.3561 120.678 10.021 119.039 10.0002L119 10L118.989 10C118.105 10.0031 117.311 10.3886 116.764 11C115.151 12.8025 113 17 113 17C113 17 110.849 12.8025 109.236 11C108.689 10.3886 107.895 10.0031 107.011 10ZM107 40C108.657 40 110 38.6569 110 37C110 35.3431 108.657 34 107 34C105.343 34 104 35.3431 104 37C104 38.6569 105.343 40 107 40Z" fill="#F5F5F5"/>
</svg>
